<?xml version="1.0" ?><svg height="60px" version="1.1" viewBox="0 0 60 60" width="60px" xmlns="http://www.w3.org/2000/svg" xmlns:sketch="http://www.bohemiancoding.com/sketch/ns" xmlns:xlink="http://www.w3.org/1999/xlink"><title/><desc/><defs/><g fill="none" fill-rule="evenodd" id="black" stroke="none" stroke-width="1"><g id="slice" transform="translate(-401.000000, -100.000000)"/><g fill="#000000" id="vimeo" transform="translate(11.000000, 15.000000)"><path d="M20.3953549,8.209792 C24.3490807,5.89717825 26.4600709,9.14954823 24.4369125,12.8302601 C22.4172154,16.5079434 20.5710184,18.9062255 19.6048694,18.9062255 C18.6400184,18.9062255 17.8971264,16.4456391 16.7925234,12.1440477 C15.6489802,7.69707969 15.6563356,-0.313779712 10.9060669,0.593959042 C6.42578338,1.45021023 0.538461538,8.29719106 0.538461538,8.29719106 L1.94420187,10.0923331 C1.94420187,10.0923331 4.84394692,7.86711845 5.81096128,8.97950946 C6.77711029,10.0923331 10.4660429,23.5266936 11.6978504,26.0054521 C12.773032,28.1791792 15.7389753,31.0542622 18.9904799,29.0012496 C22.2406866,26.948237 33.0474506,17.9638732 34.9814793,7.35527148 C36.9150753,-3.25289761 21.9758934,-1.03244228 20.3953549,8.209792 L20.3953549,8.209792 Z"/></g></g></svg>