<svg xmlns="http://www.w3.org/2000/svg" width="85.206" height="85.237" viewBox="0 0 85.206 85.237">
  <g id="md-logo" transform="translate(-2.22 -2.22)">
    <path id="Path_35" data-name="Path 35" d="M2.32,2.32v18.8h8.327V11.7H79V35.751a10.7,10.7,0,0,0-9.507-4.785c-8.731,0-14.7,6.96-14.7,15.721,0,8.668,6.027,15.783,15.1,15.783A10.615,10.615,0,0,0,79,57.686v3.822h8.327V2.32ZM71.636,55.076a8.112,8.112,0,0,1-8.2-8.42,8.2,8.2,0,1,1,16.4,0A8.148,8.148,0,0,1,71.636,55.076Z" transform="translate(0 0)" fill="#75cdd8" stroke="#75cdd8" stroke-width="0.2"/>
    <path id="Path_36" data-name="Path 36" d="M79,58.517H10.647V26.982a11.348,11.348,0,0,1,1.15-5.748,4.927,4.927,0,0,1,4.567-2.579,4.18,4.18,0,0,1,3.418,1.491c.621.746,1.367,2.33,1.367,5.81V42.081h8.327v-15.1a11.348,11.348,0,0,1,1.15-5.748,4.927,4.927,0,0,1,4.567-2.579,4.18,4.18,0,0,1,3.418,1.491c.621.746,1.367,2.33,1.367,5.81V42.081H48.3V23.5c0-3.262-.124-5.81-2.051-8.327-1.15-1.491-3.418-3.635-7.985-3.635a10.891,10.891,0,0,0-9.507,5.406c-.746-1.522-3.138-5.406-9.352-5.406a10.918,10.918,0,0,0-8.824,4.319V12.5H2.32V67.931H87.326v-15.1H79Z" transform="translate(0 19.426)" fill="#75cdd8" stroke="#75cdd8" stroke-width="0.2"/>
  </g>
</svg>
