<svg xmlns="http://www.w3.org/2000/svg" xmlns:xlink="http://www.w3.org/1999/xlink" width="293.927" height="491.514" viewBox="0 0 293.927 491.514">
  <defs>
    <clipPath id="clip-path">
      <ellipse id="SVGID" cx="111.679" cy="120.013" rx="111.679" ry="120.013" fill="#fff"/>
    </clipPath>
  </defs>
  <g id="Group_54" data-name="Group 54" transform="translate(0.005)">
    <g id="Group_52" data-name="Group 52" transform="translate(-0.005)">
      <g id="Group_27" data-name="Group 27">
        <path id="Path_18" data-name="Path 18" d="M577.593,314.83h0c83.78,0,90.61,50.3,90.61,50.3-3.62-1.922,13.639.675,31.086,18.459,18.6,18.958,18.6,46.5,18.6,71.532V664.5A141.841,141.841,0,0,1,576.046,806.344h0A141.842,141.842,0,0,1,434.2,664.5V458.218C434.2,379.359,498.729,314.83,577.593,314.83Z" transform="translate(-434.2 -314.83)"/>
      </g>
      <g id="Group_31" data-name="Group 31" transform="translate(248.229 154.312)">
        <g id="Group_28" data-name="Group 28" transform="translate(0 0)">
          <path id="Path_19" data-name="Path 19" d="M622.425,429.852l1.6-.388a17.819,17.819,0,0,1,9.581.291,28.756,28.756,0,0,1,19.979,30.256C652,475.789,637.606,488.975,622.016,485.7c-2.108-.444-8.191-2.664-8.191-2.664" transform="translate(-612.343 -424.617)" fill="#fff"/>
          <path id="Path_20" data-name="Path 20" d="M627.251,491.732a27.747,27.747,0,0,1-5.709-.6c-2.294-.485-7.72-2.443-8.783-2.833l2.964-8.123c2.407.874,6.356,2.233,7.6,2.5a19.981,19.981,0,0,0,16.025-3.72A26.063,26.063,0,0,0,649.7,460.787a24.514,24.514,0,0,0-16.979-25.7,13.474,13.474,0,0,0-7.254-.212l-1.6.388-2.05-8.4,1.6-.388a22.134,22.134,0,0,1,11.906.367,33.193,33.193,0,0,1,22.98,34.81,34.828,34.828,0,0,1-13.857,24.282A29.037,29.037,0,0,1,627.251,491.732Z" transform="translate(-612.759 -425.83)"/>
        </g>
        <g id="Group_29" data-name="Group 29" transform="translate(10.916 46.659)">
          <circle id="Ellipse_7" data-name="Ellipse 7" cx="3.766" cy="3.766" r="3.766" transform="translate(0 0)"/>
        </g>
        <g id="Group_30" data-name="Group 30" transform="translate(20.33 44.775)">
          <circle id="Ellipse_8" data-name="Ellipse 8" cx="2.824" cy="2.824" r="2.824" transform="translate(0 0)"/>
        </g>
      </g>
      <g id="Group_35" data-name="Group 35" transform="translate(34.59 51.049)">
        <ellipse id="SVGID-2" data-name="SVGID" cx="111.679" cy="120.013" rx="111.679" ry="120.013" transform="translate(0 0)" fill="#fff"/>
        <g id="Group_34" data-name="Group 34" transform="translate(0 0)" clip-path="url(#clip-path)">
          <g id="Group_32" data-name="Group 32" transform="translate(11.668 147.516)">
            <circle id="Ellipse_9" data-name="Ellipse 9" cx="22.919" cy="22.919" r="22.919" transform="translate(0 0)" fill="#4fe9d2"/>
          </g>
          <g id="Group_33" data-name="Group 33" transform="translate(165.85 145.849)">
            <circle id="Ellipse_10" data-name="Ellipse 10" cx="22.919" cy="22.919" r="22.919" transform="translate(0 0)" fill="#4fe9d2"/>
          </g>
        </g>
      </g>
      <g id="Group_37" data-name="Group 37" transform="translate(178.731 165.587)">
        <g id="Group_36" data-name="Group 36" transform="translate(0 0)">
          <path id="Path_21" data-name="Path 21" d="M605.945,448.431c-.158,17.126-9.58,31.035-21.5,31.066s-21.628-13.831-21.675-30.959S606.146,426.911,605.945,448.431Z" transform="translate(-562.767 -433.941)"/>
        </g>
      </g>
      <g id="Group_38" data-name="Group 38" transform="translate(168.115 158.178)">
        <path id="Path_22" data-name="Path 22" d="M560.537,453.249a5.4,5.4,0,0,1-3.585-9.451c.569-.5,14.089-12.316,29.947-12.717,11.328-.291,21.966,3.048,26.864,4.854l9.914-6.448a5.4,5.4,0,1,1,5.893,9.061l-12.251,7.968a5.412,5.412,0,0,1-5.13.414c-.116-.051-12.391-5.376-25.017-5.048-11.771.291-22.945,9.9-23.054,10A5.385,5.385,0,0,1,560.537,453.249Z" transform="translate(-555.13 -428.612)"/>
      </g>
      <g id="Group_40" data-name="Group 40" transform="translate(69.545 165.917)">
        <g id="Group_39" data-name="Group 39" transform="translate(0 0)">
          <path id="Path_23" data-name="Path 23" d="M484.227,448.339c-.041,17.127,9.58,31.034,21.5,31.066s21.627-13.831,21.676-30.958S484.276,427.655,484.227,448.339Z" transform="translate(-484.227 -434.179)"/>
        </g>
      </g>
      <g id="Group_41" data-name="Group 41" transform="translate(46.438 158.18)">
        <path id="Path_24" data-name="Path 24" d="M539.1,453.248a5.387,5.387,0,0,1-3.573-1.35h0c-.109-.1-11.2-9.713-23.063-10.012-12.634-.316-24.9,4.992-25.022,5.048a5.415,5.415,0,0,1-5.125-.417l-12.251-7.967a5.4,5.4,0,0,1,5.893-9.061l9.912,6.448c4.9-1.8,15.562-5.145,26.864-4.854,15.859.4,29.38,12.215,29.947,12.717a5.4,5.4,0,0,1-3.584,9.451Z" transform="translate(-467.605 -428.613)"/>
      </g>
      <g id="Group_42" data-name="Group 42" transform="translate(137.725 182.959)">
        <path id="Path_25" data-name="Path 25" d="M537.593,477.6a4.328,4.328,0,0,1-4.174-5.444,39.943,39.943,0,0,0,.1-20.341A4.323,4.323,0,1,1,541.9,449.7a48.5,48.5,0,0,1-.132,24.694A4.325,4.325,0,0,1,537.593,477.6Z" transform="translate(-533.272 -446.437)"/>
      </g>
      <g id="Group_43" data-name="Group 43" transform="translate(118.19 231.328)">
        <path id="Path_26" data-name="Path 26" d="M565.211,499.879a4.306,4.306,0,0,1-1.867-.427l-18.965-9.1-18.966,9.1a4.324,4.324,0,1,1-3.74-7.8l20.834-10a4.318,4.318,0,0,1,3.742,0l20.834,10a4.324,4.324,0,0,1-1.874,8.223Z" transform="translate(-519.218 -481.23)"/>
      </g>
      <g id="Group_44" data-name="Group 44" transform="translate(171.093 129.425)">
        <path id="Path_27" data-name="Path 27" d="M561.588,425.6a4.316,4.316,0,0,1-3.36-7.022c.514-.633,12.885-15.436,40.212-9.064a4.323,4.323,0,0,1-1.965,8.421c-21.8-5.087-31.163,5.661-31.551,6.121A4.356,4.356,0,0,1,561.588,425.6Z" transform="translate(-557.275 -407.929)"/>
      </g>
      <g id="Group_45" data-name="Group 45" transform="translate(72.739 129.424)">
        <path id="Path_28" data-name="Path 28" d="M526.72,425.628a4.315,4.315,0,0,1-3.338-1.573c-.441-.52-9.825-11.186-31.551-6.116a4.323,4.323,0,1,1-1.964-8.421c27.326-6.374,39.7,8.431,40.212,9.064a4.324,4.324,0,0,1-3.356,7.046Z" transform="translate(-486.525 -407.928)"/>
      </g>
      <g id="Group_46" data-name="Group 46" transform="translate(258.31 159.55)">
        <path id="Path_29" data-name="Path 29" d="M620.011,429.6" transform="translate(-620.011 -429.6)" fill="#c6eaed" stroke="#000" stroke-miterlimit="10" stroke-width="10"/>
      </g>
      <g id="Group_47" data-name="Group 47" transform="translate(193.34 279.915)">
        <path id="Path_30" data-name="Path 30" d="M573.276,516.18" transform="translate(-573.276 -516.18)" stroke="#000" stroke-miterlimit="10" stroke-width="8"/>
      </g>
      <g id="Group_48" data-name="Group 48" transform="translate(207.652 69.689)">
        <path id="Path_31" data-name="Path 31" d="M583.573,376.8c1.51-12.426,28.888-17.975,47.013-2.014,31.494,27.73,5.7,108.565-7.5,124.17-1.054,1.245,12.756-45.735-1.892-84.168C606.122,375.235,583.349,378.638,583.573,376.8Z" transform="translate(-583.571 -364.959)"/>
      </g>
      <g id="Group_49" data-name="Group 49" transform="translate(5.056 24.611)">
        <path id="Path_32" data-name="Path 32" d="M640.791,389.958c-22.644-28.82-77.574-24.319-99.243-9.32-56.083,38.826-80.842,168.35-24.173,327.534L441.287,541.378l-3.449-115.224,65.492-82.332,101.329-11.288s27.424,17.355,34.027,23.963C651.892,369.713,640.791,389.958,640.791,389.958Z" transform="translate(-437.838 -332.533)"/>
      </g>
      <g id="Group_50" data-name="Group 50" transform="translate(206.568 57.716)">
        <path id="Path_33" data-name="Path 33" d="M582.791,368.321l1.375,12.195,23.784-12.195-9.618-11.974Z" transform="translate(-582.791 -356.347)"/>
      </g>
      <g id="Group_51" data-name="Group 51" transform="translate(206.861 47.884)">
        <path id="Path_34" data-name="Path 34" d="M584.083,384.357a1.081,1.081,0,0,1-1.03-1.409c6.712-20.975,25.9-33.007,26.714-33.512a1.083,1.083,0,0,1,1.136,1.845c-.194.118-19.327,12.135-25.791,32.327a1.08,1.08,0,0,1-1.028.75Z" transform="translate(-583.002 -349.274)" fill="#fff"/>
      </g>
    </g>
  </g>
</svg>
