<svg xmlns="http://www.w3.org/2000/svg" xmlns:xlink="http://www.w3.org/1999/xlink" width="302.773" height="506.298" viewBox="0 0 302.773 506.298">
  <defs>
    <clipPath id="clip-path">
      <ellipse id="SVGID" cx="115.038" cy="123.623" rx="115.038" ry="123.623" fill="#fff"/>
    </clipPath>
  </defs>
  <g id="avi" transform="translate(-742.722 -382)">
    <g id="Group_54" data-name="Group 54" transform="translate(742.722 382)">
      <g id="Group_52" data-name="Group 52" transform="translate(0)">
        <g id="Group_27" data-name="Group 27" transform="translate(0)">
          <path id="Path_18" data-name="Path 18" d="M581.906,314.83h0c86.3,0,93.335,51.816,93.335,51.816-3.729-1.98,14.049.695,32.021,19.014,19.157,19.528,19.157,47.9,19.157,73.684V675.021A146.107,146.107,0,0,1,580.312,821.128h0A146.107,146.107,0,0,1,434.2,675.021V462.531C434.2,381.3,500.67,314.83,581.906,314.83Z" transform="translate(-434.205 -314.83)"/>
        </g>
        <g id="Group_31" data-name="Group 31" transform="translate(255.689 158.954)">
          <g id="Group_28" data-name="Group 28">
            <path id="Path_19" data-name="Path 19" d="M622.684,429.879l1.65-.4a18.355,18.355,0,0,1,9.869.3,29.621,29.621,0,0,1,20.58,31.166c-1.634,16.253-16.462,29.836-32.521,26.459-2.171-.457-8.437-2.744-8.437-2.744" transform="translate(-612.297 -424.487)" fill="#fff"/>
            <path id="Path_20" data-name="Path 20" d="M627.687,493.714a28.562,28.562,0,0,1-5.881-.614c-2.363-.5-7.952-2.517-9.047-2.918l3.053-8.367c2.48.9,6.547,2.3,7.827,2.571a20.582,20.582,0,0,0,16.507-3.832,26.846,26.846,0,0,0,10.667-18.715,25.251,25.251,0,0,0-17.489-26.474,13.878,13.878,0,0,0-7.472-.218l-1.65.4-2.112-8.654,1.649-.4a22.8,22.8,0,0,1,12.264.378,34.192,34.192,0,0,1,23.671,35.857A35.879,35.879,0,0,1,645.4,487.74,29.914,29.914,0,0,1,627.687,493.714Z" transform="translate(-612.758 -425.831)"/>
          </g>
          <g id="Group_29" data-name="Group 29" transform="translate(11.245 48.062)">
            <circle id="Ellipse_7" data-name="Ellipse 7" cx="3.879" cy="3.879" r="3.879"/>
          </g>
          <g id="Group_30" data-name="Group 30" transform="translate(20.943 46.122)">
            <circle id="Ellipse_8" data-name="Ellipse 8" cx="2.909" cy="2.909" r="2.909"/>
          </g>
        </g>
        <g id="Group_35" data-name="Group 35" transform="translate(35.625 52.584)">
          <ellipse id="SVGID-2" data-name="SVGID" cx="115.038" cy="123.623" rx="115.038" ry="123.623" fill="#fff"/>
          <g id="Group_34" data-name="Group 34" clip-path="url(#clip-path)">
            <g id="Group_32" data-name="Group 32" transform="translate(12.019 151.953)">
              <circle id="Ellipse_9" data-name="Ellipse 9" cx="23.608" cy="23.608" r="23.608" fill="#75cdd8"/>
            </g>
            <g id="Group_33" data-name="Group 33" transform="translate(170.839 150.236)">
              <circle id="Ellipse_10" data-name="Ellipse 10" cx="23.608" cy="23.608" r="23.608" fill="#75cdd8"/>
            </g>
          </g>
        </g>
        <g id="Group_37" data-name="Group 37" transform="translate(184.103 170.568)">
          <g id="Group_36" data-name="Group 36">
            <path id="Path_21" data-name="Path 21" d="M607.244,448.867c-.163,17.641-9.868,31.968-22.15,32s-22.278-14.247-22.327-31.89S607.451,426.7,607.244,448.867Z" transform="translate(-562.768 -433.941)"/>
          </g>
        </g>
        <g id="Group_38" data-name="Group 38" transform="translate(173.17 162.937)">
          <path id="Path_22" data-name="Path 22" d="M560.7,453.99a5.567,5.567,0,0,1-3.693-9.735c.586-.517,14.513-12.687,30.848-13.1,11.669-.3,22.627,3.14,27.672,5l10.212-6.642a5.567,5.567,0,0,1,6.07,9.334l-12.62,8.207a5.574,5.574,0,0,1-5.284.427c-.12-.053-12.764-5.538-25.769-5.2-12.125.3-23.635,10.2-23.748,10.3A5.547,5.547,0,0,1,560.7,453.99Z" transform="translate(-555.134 -428.613)"/>
        </g>
        <g id="Group_40" data-name="Group 40" transform="translate(71.632 170.906)">
          <g id="Group_39" data-name="Group 39">
            <path id="Path_23" data-name="Path 23" d="M484.227,448.765c-.042,17.642,9.868,31.968,22.15,32s22.278-14.247,22.328-31.889S484.277,427.459,484.227,448.765Z" transform="translate(-484.227 -434.177)"/>
          </g>
        </g>
        <g id="Group_41" data-name="Group 41" transform="translate(47.831 162.938)">
          <path id="Path_24" data-name="Path 24" d="M541.248,453.989a5.549,5.549,0,0,1-3.68-1.391h0c-.113-.1-11.532-10.005-23.757-10.313-13.014-.325-25.649,5.142-25.775,5.2a5.578,5.578,0,0,1-5.279-.43l-12.619-8.207a5.567,5.567,0,1,1,6.07-9.334l10.21,6.642c5.045-1.859,16.03-5.3,27.672-5,16.336.413,30.264,12.583,30.848,13.1a5.566,5.566,0,0,1-3.692,9.735Z" transform="translate(-467.606 -428.613)"/>
        </g>
        <g id="Group_42" data-name="Group 42" transform="translate(141.856 188.461)">
          <path id="Path_25" data-name="Path 25" d="M537.723,478.541a4.458,4.458,0,0,1-4.3-5.608,41.144,41.144,0,0,0,.1-20.953,4.453,4.453,0,1,1,8.635-2.178,49.963,49.963,0,0,1-.136,25.437A4.455,4.455,0,0,1,537.723,478.541Z" transform="translate(-533.266 -446.436)"/>
        </g>
        <g id="Group_43" data-name="Group 43" transform="translate(121.742 238.286)">
          <path id="Path_26" data-name="Path 26" d="M566.595,500.44a4.439,4.439,0,0,1-1.923-.44l-19.535-9.377L525.6,500a4.454,4.454,0,0,1-3.853-8.031l21.461-10.3a4.448,4.448,0,0,1,3.855,0l21.461,10.3a4.454,4.454,0,0,1-1.93,8.47Z" transform="translate(-519.22 -481.23)"/>
        </g>
        <g id="Group_44" data-name="Group 44" transform="translate(176.228 133.317)">
          <path id="Path_27" data-name="Path 27" d="M561.718,426.136a4.446,4.446,0,0,1-3.461-7.233c.529-.652,13.273-15.9,41.421-9.337a4.453,4.453,0,1,1-2.024,8.674c-22.453-5.24-32.1,5.831-32.5,6.305A4.487,4.487,0,0,1,561.718,426.136Z" transform="translate(-557.269 -407.928)"/>
        </g>
        <g id="Group_45" data-name="Group 45" transform="translate(74.92 133.317)">
          <path id="Path_28" data-name="Path 28" d="M527.929,426.16a4.445,4.445,0,0,1-3.438-1.62c-.454-.536-10.121-11.523-32.5-6.3a4.453,4.453,0,0,1-2.023-8.674c28.148-6.566,40.892,8.685,41.421,9.337a4.454,4.454,0,0,1-3.457,7.258Z" transform="translate(-486.523 -407.928)"/>
        </g>
        <g id="Group_46" data-name="Group 46" transform="translate(266.075 164.345)">
          <path id="Path_29" data-name="Path 29" d="M620.011,429.6" transform="translate(-620.011 -429.596)" fill="#c6eaed" stroke="#000" stroke-miterlimit="10" stroke-width="10"/>
        </g>
        <g id="Group_47" data-name="Group 47" transform="translate(199.15 288.334)">
          <path id="Path_30" data-name="Path 30" d="M573.276,516.18" transform="translate(-573.276 -516.18)" stroke="#000" stroke-miterlimit="10" stroke-width="8"/>
        </g>
        <g id="Group_48" data-name="Group 48" transform="translate(213.894 71.786)">
          <path id="Path_31" data-name="Path 31" d="M583.573,377.152c1.555-12.8,29.757-18.516,48.427-2.075,32.441,28.564,5.872,111.831-7.721,127.905-1.086,1.283,13.14-47.111-1.949-86.7C606.8,375.544,583.342,379.05,583.573,377.152Z" transform="translate(-583.572 -364.96)"/>
        </g>
        <g id="Group_49" data-name="Group 49" transform="translate(5.203 25.351)">
          <path id="Path_32" data-name="Path 32" d="M646.895,391.685c-23.325-29.687-79.907-25.05-102.228-9.6-57.77,39.994-83.274,173.414-24.9,337.386L441.391,547.66l-3.553-118.69L505.3,344.161l104.377-11.628s28.249,17.877,35.051,24.684C658.331,370.831,646.895,391.685,646.895,391.685Z" transform="translate(-437.838 -332.533)"/>
        </g>
        <g id="Group_50" data-name="Group 50" transform="translate(212.776 59.452)">
          <path id="Path_33" data-name="Path 33" d="M582.791,368.681l1.416,12.562,24.5-12.562L598.8,356.347Z" transform="translate(-582.791 -356.347)"/>
        </g>
        <g id="Group_51" data-name="Group 51" transform="translate(213.078 49.325)">
          <path id="Path_34" data-name="Path 34" d="M584.116,385.412a1.114,1.114,0,0,1-1.061-1.452c6.914-21.606,26.681-34,27.517-34.52a1.114,1.114,0,0,1,1.17,1.9c-.2.122-19.908,12.5-26.567,33.3A1.113,1.113,0,0,1,584.116,385.412Z" transform="translate(-583.002 -349.275)" fill="#fff"/>
        </g>
      </g>
    </g>
  </g>
</svg>
